<svg width="20" height="20" viewBox="0 0 20 20" fill="none" xmlns="http://www.w3.org/2000/svg">
<g clip-path="url(#clip0_18710_2357)">
<path opacity="0.8" d="M14.3337 11.6666C14.5645 11.6666 14.6799 11.6666 14.7735 11.7179C14.8506 11.7602 14.9225 11.8396 14.9568 11.9206C14.9985 12.0188 14.988 12.1232 14.967 12.3322C14.8583 13.4156 14.4855 14.4595 13.8768 15.3704C13.1443 16.4668 12.1031 17.3212 10.8849 17.8258C9.66671 18.3304 8.32627 18.4624 7.03306 18.2052C5.73985 17.948 4.55197 17.313 3.61962 16.3807C2.68727 15.4483 2.05233 14.2604 1.79509 12.9672C1.53786 11.674 1.66988 10.3336 2.17447 9.11541C2.67905 7.89724 3.53353 6.85605 4.62986 6.12351C5.5408 5.51484 6.5847 5.14197 7.66808 5.03327C7.87705 5.01231 7.98153 5.00182 8.07973 5.04348C8.16073 5.07785 8.24013 5.14968 8.28241 5.22684C8.33366 5.32039 8.33366 5.4358 8.33366 5.66664V11C8.33366 11.2333 8.33366 11.35 8.37908 11.4391C8.41902 11.5175 8.48277 11.5813 8.56117 11.6212C8.6503 11.6666 8.76697 11.6666 9.00033 11.6666H14.3337Z" stroke="#F9F9F9" stroke-width="2" stroke-linecap="round" stroke-linejoin="round"/>
<path d="M11.667 2.33339C11.667 2.10256 11.667 1.98714 11.7182 1.89359C11.7605 1.81643 11.8399 1.7446 11.9209 1.71023C12.0191 1.66857 12.1236 1.67905 12.3326 1.70001C13.8562 1.85285 15.2887 2.52698 16.381 3.61935C17.4734 4.71172 18.1475 6.14414 18.3004 7.66781C18.3213 7.87679 18.3318 7.98127 18.2902 8.07947C18.2558 8.16047 18.184 8.23986 18.1068 8.28214C18.0132 8.33339 17.8978 8.33339 17.667 8.33339L12.3337 8.33339C12.1003 8.33339 11.9836 8.33339 11.8945 8.28798C11.8161 8.24803 11.7524 8.18429 11.7124 8.10589C11.667 8.01676 11.667 7.90008 11.667 7.66673L11.667 2.33339Z" stroke="#F9F9F9" stroke-width="2" stroke-linecap="round" stroke-linejoin="round"/>
</g>
<defs>
<clipPath id="clip0_18710_2357">
<rect width="20" height="20" fill="white"/>
</clipPath>
</defs>
</svg>
